<svg width="136" height="124" viewBox="0 0 136 124" fill="none" xmlns="http://www.w3.org/2000/svg">
<mask id="path-1-outside-1_35309_18136" maskUnits="userSpaceOnUse" x="0" y="0" width="136" height="124" fill="black">
<rect fill="white" width="136" height="124"/>
<path fill-rule="evenodd" clip-rule="evenodd" d="M105.378 15.301L102.779 20.602L97.389 23.424C94.425 24.975 92 26.563 92 26.952C92 27.34 94.292 28.732 97.094 30.044L102.188 32.43L105.232 38.459L108.275 44.488L111.284 38.381L114.293 32.273L119.893 29.526L125.493 26.78L119.665 23.833L113.837 20.885L111.345 15.443C109.975 12.449 108.656 10 108.416 10C108.175 10 106.808 12.385 105.378 15.301ZM77.573 33.859L76.094 36.718L72.932 38.028L69.769 39.338L73.243 41.12L76.717 42.903L78.026 46.062L79.334 49.221L81.019 45.963C81.946 44.171 84.171 41.946 85.963 41.019L89.221 39.334L86.063 38.026L82.906 36.718L81.427 33.859C80.614 32.287 79.747 31 79.5 31C79.253 31 78.386 32.287 77.573 33.859ZM113.573 52.859L112.094 55.718L108.932 57.028L105.769 58.338L109.243 60.12L112.717 61.903L114.026 65.062L115.334 68.221L117.019 64.963C117.946 63.171 120.171 60.946 121.963 60.019L125.221 58.334L122.063 57.026L118.906 55.718L117.427 52.859C116.614 51.287 115.747 50 115.5 50C115.253 50 114.386 51.287 113.573 52.859ZM17.085 54.752L13.67 56.5L11.835 59.984L10 63.469L10.002 83.484L10.003 103.5L11.752 107L13.5 110.5L17 112.248L20.5 113.997H57H93.5L97 112.248L100.5 110.5L102.248 107L103.997 103.5V83.5V63.5L102.248 60.085L100.5 56.67L97.016 54.835L93.531 53L57.016 53.002L20.5 53.003L17.085 54.752ZM93.429 63.571L95 65.143V84.036V102.93L93.066 103.965L91.131 105H56.637H22.143L20.571 103.429L19 101.857V82.978V64.099L20.75 63.08L22.5 62.061L57.179 62.03L91.857 62L93.429 63.571ZM24.2 67.2C22.657 68.743 22.657 72.257 24.2 73.8L25.4 75H57H88.6L89.8 73.8C91.343 72.257 91.343 68.743 89.8 67.2L88.6 66H57H25.4L24.2 67.2ZM24.2 80.2C22.657 81.743 22.657 85.257 24.2 86.8L25.4 88H57H88.6L89.8 86.8C91.343 85.257 91.343 81.743 89.8 80.2L88.6 79H57H25.4L24.2 80.2ZM24.2 93.2C22.657 94.743 22.657 98.257 24.2 99.8C24.86 100.46 27.245 101 29.5 101C31.755 101 34.14 100.46 34.8 99.8C36.343 98.257 36.343 94.743 34.8 93.2C33.246 91.646 25.754 91.646 24.2 93.2ZM41.2 93.2C39.657 94.743 39.657 98.257 41.2 99.8L42.4 101H57H71.6L72.8 99.8C73.46 99.14 74 97.655 74 96.5C74 95.345 73.46 93.86 72.8 93.2L71.6 92H57H42.4L41.2 93.2ZM79.2 93.2C77.657 94.743 77.657 98.257 79.2 99.8C79.86 100.46 82.245 101 84.5 101C89.054 101 91 99.653 91 96.5C91 95.345 90.46 93.86 89.8 93.2C88.246 91.646 80.754 91.646 79.2 93.2Z"/>
</mask>
<path fill-rule="evenodd" clip-rule="evenodd" d="M105.378 15.301L102.779 20.602L97.389 23.424C94.425 24.975 92 26.563 92 26.952C92 27.34 94.292 28.732 97.094 30.044L102.188 32.43L105.232 38.459L108.275 44.488L111.284 38.381L114.293 32.273L119.893 29.526L125.493 26.78L119.665 23.833L113.837 20.885L111.345 15.443C109.975 12.449 108.656 10 108.416 10C108.175 10 106.808 12.385 105.378 15.301ZM77.573 33.859L76.094 36.718L72.932 38.028L69.769 39.338L73.243 41.12L76.717 42.903L78.026 46.062L79.334 49.221L81.019 45.963C81.946 44.171 84.171 41.946 85.963 41.019L89.221 39.334L86.063 38.026L82.906 36.718L81.427 33.859C80.614 32.287 79.747 31 79.5 31C79.253 31 78.386 32.287 77.573 33.859ZM113.573 52.859L112.094 55.718L108.932 57.028L105.769 58.338L109.243 60.12L112.717 61.903L114.026 65.062L115.334 68.221L117.019 64.963C117.946 63.171 120.171 60.946 121.963 60.019L125.221 58.334L122.063 57.026L118.906 55.718L117.427 52.859C116.614 51.287 115.747 50 115.5 50C115.253 50 114.386 51.287 113.573 52.859ZM17.085 54.752L13.67 56.5L11.835 59.984L10 63.469L10.002 83.484L10.003 103.5L11.752 107L13.5 110.5L17 112.248L20.5 113.997H57H93.5L97 112.248L100.5 110.5L102.248 107L103.997 103.5V83.5V63.5L102.248 60.085L100.5 56.67L97.016 54.835L93.531 53L57.016 53.002L20.5 53.003L17.085 54.752ZM93.429 63.571L95 65.143V84.036V102.93L93.066 103.965L91.131 105H56.637H22.143L20.571 103.429L19 101.857V82.978V64.099L20.75 63.08L22.5 62.061L57.179 62.03L91.857 62L93.429 63.571ZM24.2 67.2C22.657 68.743 22.657 72.257 24.2 73.8L25.4 75H57H88.6L89.8 73.8C91.343 72.257 91.343 68.743 89.8 67.2L88.6 66H57H25.4L24.2 67.2ZM24.2 80.2C22.657 81.743 22.657 85.257 24.2 86.8L25.4 88H57H88.6L89.8 86.8C91.343 85.257 91.343 81.743 89.8 80.2L88.6 79H57H25.4L24.2 80.2ZM24.2 93.2C22.657 94.743 22.657 98.257 24.2 99.8C24.86 100.46 27.245 101 29.5 101C31.755 101 34.14 100.46 34.8 99.8C36.343 98.257 36.343 94.743 34.8 93.2C33.246 91.646 25.754 91.646 24.2 93.2ZM41.2 93.2C39.657 94.743 39.657 98.257 41.2 99.8L42.4 101H57H71.6L72.8 99.8C73.46 99.14 74 97.655 74 96.5C74 95.345 73.46 93.86 72.8 93.2L71.6 92H57H42.4L41.2 93.2ZM79.2 93.2C77.657 94.743 77.657 98.257 79.2 99.8C79.86 100.46 82.245 101 84.5 101C89.054 101 91 99.653 91 96.5C91 95.345 90.46 93.86 89.8 93.2C88.246 91.646 80.754 91.646 79.2 93.2Z" fill="black"/>
<path fill-rule="evenodd" clip-rule="evenodd" d="M105.378 15.301L102.779 20.602L97.389 23.424C94.425 24.975 92 26.563 92 26.952C92 27.34 94.292 28.732 97.094 30.044L102.188 32.43L105.232 38.459L108.275 44.488L111.284 38.381L114.293 32.273L119.893 29.526L125.493 26.78L119.665 23.833L113.837 20.885L111.345 15.443C109.975 12.449 108.656 10 108.416 10C108.175 10 106.808 12.385 105.378 15.301ZM77.573 33.859L76.094 36.718L72.932 38.028L69.769 39.338L73.243 41.12L76.717 42.903L78.026 46.062L79.334 49.221L81.019 45.963C81.946 44.171 84.171 41.946 85.963 41.019L89.221 39.334L86.063 38.026L82.906 36.718L81.427 33.859C80.614 32.287 79.747 31 79.5 31C79.253 31 78.386 32.287 77.573 33.859ZM113.573 52.859L112.094 55.718L108.932 57.028L105.769 58.338L109.243 60.12L112.717 61.903L114.026 65.062L115.334 68.221L117.019 64.963C117.946 63.171 120.171 60.946 121.963 60.019L125.221 58.334L122.063 57.026L118.906 55.718L117.427 52.859C116.614 51.287 115.747 50 115.5 50C115.253 50 114.386 51.287 113.573 52.859ZM17.085 54.752L13.67 56.5L11.835 59.984L10 63.469L10.002 83.484L10.003 103.5L11.752 107L13.5 110.5L17 112.248L20.5 113.997H57H93.5L97 112.248L100.5 110.5L102.248 107L103.997 103.5V83.5V63.5L102.248 60.085L100.5 56.67L97.016 54.835L93.531 53L57.016 53.002L20.5 53.003L17.085 54.752ZM93.429 63.571L95 65.143V84.036V102.93L93.066 103.965L91.131 105H56.637H22.143L20.571 103.429L19 101.857V82.978V64.099L20.75 63.08L22.5 62.061L57.179 62.03L91.857 62L93.429 63.571ZM24.2 67.2C22.657 68.743 22.657 72.257 24.2 73.8L25.4 75H57H88.6L89.8 73.8C91.343 72.257 91.343 68.743 89.8 67.2L88.6 66H57H25.4L24.2 67.2ZM24.2 80.2C22.657 81.743 22.657 85.257 24.2 86.8L25.4 88H57H88.6L89.8 86.8C91.343 85.257 91.343 81.743 89.8 80.2L88.6 79H57H25.4L24.2 80.2ZM24.2 93.2C22.657 94.743 22.657 98.257 24.2 99.8C24.86 100.46 27.245 101 29.5 101C31.755 101 34.14 100.46 34.8 99.8C36.343 98.257 36.343 94.743 34.8 93.2C33.246 91.646 25.754 91.646 24.2 93.2ZM41.2 93.2C39.657 94.743 39.657 98.257 41.2 99.8L42.4 101H57H71.6L72.8 99.8C73.46 99.14 74 97.655 74 96.5C74 95.345 73.46 93.86 72.8 93.2L71.6 92H57H42.4L41.2 93.2ZM79.2 93.2C77.657 94.743 77.657 98.257 79.2 99.8C79.86 100.46 82.245 101 84.5 101C89.054 101 91 99.653 91 96.5C91 95.345 90.46 93.86 89.8 93.2C88.246 91.646 80.754 91.646 79.2 93.2Z" stroke="white" stroke-width="20" stroke-linejoin="round" mask="url(#path-1-outside-1_35309_18136)"/>
</svg>
