<svg width="124" height="124" viewBox="0 0 124 124" fill="none" xmlns="http://www.w3.org/2000/svg">
<path d="M89.9397 65.4016C89.9397 62.9136 89.9361 61.3234 89.8391 60.1167C89.7464 58.9635 89.5912 58.5711 89.5084 58.406C89.1309 57.6532 88.5237 57.0358 87.7731 56.647C87.6092 56.5622 87.2232 56.4041 86.0887 56.3098C84.9006 56.2111 83.3338 56.2076 80.8806 56.2076H23.1216C20.6684 56.2076 19.0998 56.2111 17.9102 56.3098C16.7733 56.4042 16.3867 56.5625 16.2236 56.647C15.4779 57.0332 14.8727 57.6482 14.4927 58.406C14.4096 58.5718 14.2538 58.9647 14.1609 60.1201C14.0637 61.3291 14.0602 62.9231 14.0602 65.4162V89.586C14.0602 92.0791 14.0638 93.6714 14.1609 94.8788C14.2537 96.0317 14.4092 96.424 14.4927 96.5906C14.8752 97.3534 15.4828 97.9705 16.2236 98.3541C16.386 98.4382 16.7721 98.5959 17.9069 98.6902C19.0942 98.7887 20.659 98.7924 23.1072 98.7924H80.8928C83.3414 98.7924 84.9056 98.7887 86.092 98.6902C87.225 98.596 87.6102 98.4385 87.7731 98.3541C88.5188 97.9679 89.1284 97.3484 89.5084 96.5906C89.5914 96.425 89.7464 96.0335 89.8391 94.8822C89.9361 93.6765 89.9397 92.0868 89.9397 89.5984V65.4016ZM26.5181 85.8443C29.02 85.8443 31.0482 87.9055 31.0482 90.4481C31.0482 92.9907 29.02 95.0519 26.5181 95.0519H22.2711C19.7692 95.0519 17.741 92.9907 17.741 90.4481C17.741 87.9055 19.7692 85.8443 22.2711 85.8443H26.5181ZM64.741 85.8443C67.2429 85.8443 69.2711 87.9055 69.2711 90.4481C69.2711 92.9907 67.2429 95.0519 64.741 95.0519H39.259C36.7571 95.0519 34.7289 92.9907 34.7289 90.4481C34.7289 87.9055 36.7571 85.8443 39.259 85.8443H64.741ZM81.7289 85.8443C84.2308 85.8443 86.259 87.9055 86.259 90.4481C86.259 92.9907 84.2308 95.0519 81.7289 95.0519H77.4819C74.98 95.0519 72.9518 92.9907 72.9518 90.4481C72.9518 87.9055 74.98 85.8443 77.4819 85.8443H81.7289ZM81.7289 72.8962C84.2308 72.8962 86.259 74.9574 86.259 77.5C86.259 80.0426 84.2308 82.1038 81.7289 82.1038H22.2711C19.7692 82.1038 17.741 80.0426 17.741 77.5C17.741 74.9574 19.7692 72.8962 22.2711 72.8962H81.7289ZM81.7289 59.9481C84.2308 59.9481 86.259 62.0093 86.259 64.5519C86.259 67.0945 84.2308 69.1557 81.7289 69.1557H22.2711C19.7692 69.1557 17.741 67.0945 17.741 64.5519C17.741 62.0093 19.7692 59.9481 22.2711 59.9481H81.7289ZM99 89.5984C99 91.9346 99.0037 93.964 98.8695 95.6318C98.7309 97.3539 98.4229 99.0915 97.581 100.771C96.3324 103.261 94.3368 105.289 91.8863 106.558C90.2341 107.413 88.5242 107.727 86.8297 107.867C85.1885 108.004 83.1917 108 80.8928 108H23.1072C20.8081 108 18.8101 108.004 17.1681 107.867C15.4735 107.727 13.763 107.414 12.1104 106.558C9.655 105.286 7.66625 103.256 6.4201 100.771C5.57783 99.0907 5.2692 97.3525 5.13052 95.6285C4.99623 93.9589 5.00001 91.9269 5.00001 89.586V65.4162C5.00001 63.0749 4.99624 61.0411 5.13052 59.3704C5.2691 57.6463 5.57749 55.9066 6.4201 54.226C7.66874 51.7357 9.6599 49.7121 12.1104 48.4432C13.7641 47.5869 15.476 47.2735 17.1725 47.1326C18.8165 46.9962 20.8178 47 23.1216 47H80.8806C83.1841 47 85.1835 46.9962 86.8264 47.1326C88.5228 47.2736 90.2332 47.5872 91.8863 48.4432C94.3319 49.7096 96.3299 51.7307 97.581 54.226C98.4231 55.9055 98.731 57.6438 98.8695 59.3659C99.0037 61.0346 99 63.0651 99 65.4016V89.5984Z" fill="black" stroke="white" stroke-width="2" stroke-linecap="round" stroke-linejoin="round"/>
<path d="M77.2188 30.5576L77.293 30.707L77.4424 30.7812L82.8809 33.5L77.4424 36.2188L77.293 36.293L77.2188 36.4424L74.5 41.8809L71.7812 36.4424L71.707 36.293L71.5576 36.2188L66.1182 33.5L71.5576 30.7812L71.707 30.707L71.7812 30.5576L74.5 25.1182L77.2188 30.5576Z" fill="black" stroke="white"/>
<path d="M113.219 49.5576L113.293 49.707L113.442 49.7812L118.881 52.5L113.442 55.2188L113.293 55.293L113.219 55.4424L110.5 60.8809L107.781 55.4424L107.707 55.293L107.558 55.2188L102.118 52.5L107.558 49.7812L107.707 49.707L107.781 49.5576L110.5 44.1182L113.219 49.5576Z" fill="black" stroke="white"/>
<path d="M108.504 15.0352L108.577 15.1855L108.726 15.2617L119.339 20.7227L108.726 26.1846L108.577 26.2607L108.504 26.4111L103.216 37.3008L97.9287 26.4111L97.8564 26.2607L97.708 26.1846L87.0928 20.7227L97.708 15.2617L97.8564 15.1855L97.9287 15.0352L103.216 4.14453L108.504 15.0352Z" fill="black" stroke="white"/>
</svg>
